# xmcd
#
# Track frame offsets: 
#        150
#        21180
#        42232
#        60653
#        81617
#        100283
#        127144
#        146668
#        163183
#        179225
#        197854
#        225622
#
# Disc length: 3201 seconds
#
# Revision: 0
# Processed by: cddbd v1.5.2PL0 Copyright (c) Steve Scherf et al.
# Submitted via: ExactAudioCopy v1.2
#
DISCID=b70c7f0c
DTITLE=纵贯线 - 南下专线 and 北上列车
DYEAR=2010
DGENRE=Pop
TTITLE0=归来
TTITLE1=罗大佑 - 握手
TTITLE2=张震岳 - 爱 欲 浮世绘
TTITLE3=周华健 - 有光
TTITLE4=李宗盛 - 给自己的歌
TTITLE5=感应
TTITLE6=纵贯线兄弟姐妹
TTITLE7=公路
TTITLE8=天使的眼泪
TTITLE9=抱着你
TTITLE10=出发
TTITLE11=亲爱的
EXTD=
EXTT0=
EXTT1=
EXTT2=
EXTT3=
EXTT4=
EXTT5=
EXTT6=
EXTT7=
EXTT8=
EXTT9=
EXTT10=
EXTT11=
PLAYORDER=
